<svg width="152" height="34" viewBox="0 0 152 34" fill="none" xmlns="http://www.w3.org/2000/svg">
<path d="M57.8728 7.6H61.4368V23H57.8728V7.6ZM50.8768 23H47.3128V7.6H50.8768V23ZM58.1368 16.686H50.6128V13.672H58.1368V16.686ZM72.5604 23.264C71.3431 23.264 70.2137 23.066 69.1724 22.67C68.1457 22.274 67.2511 21.7167 66.4884 20.998C65.7404 20.2793 65.1537 19.436 64.7284 18.468C64.3177 17.5 64.1124 16.444 64.1124 15.3C64.1124 14.156 64.3177 13.1 64.7284 12.132C65.1537 11.164 65.7477 10.3207 66.5104 9.602C67.2731 8.88333 68.1677 8.326 69.1944 7.93C70.2211 7.534 71.3357 7.336 72.5384 7.336C73.7557 7.336 74.8704 7.534 75.8824 7.93C76.9091 8.326 77.7964 8.88333 78.5444 9.602C79.3071 10.3207 79.9011 11.164 80.3264 12.132C80.7517 13.0853 80.9644 14.1413 80.9644 15.3C80.9644 16.444 80.7517 17.5073 80.3264 18.49C79.9011 19.458 79.3071 20.3013 78.5444 21.02C77.7964 21.724 76.9091 22.274 75.8824 22.67C74.8704 23.066 73.7631 23.264 72.5604 23.264ZM72.5384 20.228C73.2277 20.228 73.8584 20.1107 74.4304 19.876C75.0171 19.6413 75.5304 19.304 75.9704 18.864C76.4104 18.424 76.7477 17.9033 76.9824 17.302C77.2317 16.7007 77.3564 16.0333 77.3564 15.3C77.3564 14.5667 77.2317 13.8993 76.9824 13.298C76.7477 12.6967 76.4104 12.176 75.9704 11.736C75.5451 11.296 75.0391 10.9587 74.4524 10.724C73.8657 10.4893 73.2277 10.372 72.5384 10.372C71.8491 10.372 71.2111 10.4893 70.6244 10.724C70.0524 10.9587 69.5464 11.296 69.1064 11.736C68.6664 12.176 68.3217 12.6967 68.0724 13.298C67.8377 13.8993 67.7204 14.5667 67.7204 15.3C67.7204 16.0187 67.8377 16.686 68.0724 17.302C68.3217 17.9033 68.6591 18.424 69.0844 18.864C69.5244 19.304 70.0377 19.6413 70.6244 19.876C71.2111 20.1107 71.8491 20.228 72.5384 20.228ZM81.4041 23L88.2681 7.6H91.7881L98.6741 23H94.9341L89.3021 9.404H90.7101L85.0561 23H81.4041ZM84.8361 19.7L85.7821 16.994H93.7021L94.6701 19.7H84.8361ZM102.037 23.176C101.45 23.176 100.944 22.978 100.519 22.582C100.108 22.1713 99.9028 21.6507 99.9028 21.02C99.9028 20.3893 100.108 19.8833 100.519 19.502C100.944 19.106 101.45 18.908 102.037 18.908C102.638 18.908 103.144 19.106 103.555 19.502C103.965 19.8833 104.171 20.3893 104.171 21.02C104.171 21.6507 103.965 22.1713 103.555 22.582C103.144 22.978 102.638 23.176 102.037 23.176ZM106.739 23V7.6H113.735C115.407 7.6 116.881 7.92267 118.157 8.568C119.433 9.19867 120.43 10.086 121.149 11.23C121.867 12.374 122.227 13.7307 122.227 15.3C122.227 16.8547 121.867 18.2113 121.149 19.37C120.43 20.514 119.433 21.4087 118.157 22.054C116.881 22.6847 115.407 23 113.735 23H106.739ZM110.303 20.074H113.559C114.585 20.074 115.473 19.8833 116.221 19.502C116.983 19.106 117.57 18.5487 117.981 17.83C118.406 17.1113 118.619 16.268 118.619 15.3C118.619 14.3173 118.406 13.474 117.981 12.77C117.57 12.0513 116.983 11.5013 116.221 11.12C115.473 10.724 114.585 10.526 113.559 10.526H110.303V20.074ZM124.914 23V7.6H131.58C132.959 7.6 134.147 7.82733 135.144 8.282C136.142 8.722 136.912 9.36 137.454 10.196C137.997 11.032 138.268 12.0293 138.268 13.188C138.268 14.332 137.997 15.322 137.454 16.158C136.912 16.9793 136.142 17.61 135.144 18.05C134.147 18.49 132.959 18.71 131.58 18.71H126.894L128.478 17.148V23H124.914ZM134.704 23L130.854 17.412H134.66L138.554 23H134.704ZM128.478 17.544L126.894 15.872H131.382C132.482 15.872 133.304 15.6373 133.846 15.168C134.389 14.684 134.66 14.024 134.66 13.188C134.66 12.3373 134.389 11.6773 133.846 11.208C133.304 10.7387 132.482 10.504 131.382 10.504H126.894L128.478 8.81V17.544Z" fill="#5429FF"/>
<path d="M26.7254 8.24654L22.5627 1.71395C22.2542 1.23079 21.8441 0.834461 21.3664 0.557809C20.8888 0.281157 20.3573 0.132145 19.8161 0.123123L11.9163 0H11.9C7.82149 0 4.69221 0.741123 2.67679 4.35809C0.800417 7.72488 0 13.46 0 23.5346V24.7658H2.58945L0.922533 34H3.23241L4.89933 24.7658H5.66667C7.51766 24.7837 9.30088 24.01 10.6312 22.6117C11.8339 21.3616 12.7014 19.6513 13.1401 17.6657L13.144 17.6479L15.0879 7.52858H12.7724L10.9322 17.1082C10.3718 19.6229 8.69592 22.3033 5.66667 22.3033H2.27092C2.33247 13.5873 3.06297 8.41976 4.61585 5.63295C5.91919 3.29361 7.82425 2.46323 11.8921 2.46207L19.7835 2.5852C19.9639 2.58818 20.1411 2.63784 20.3003 2.73006C20.4595 2.82228 20.5962 2.9544 20.6991 3.11547L25.4079 10.5043L31.7333 11.6497V12.9547L30.6785 19.0663C30.3672 20.8701 29.835 21.7787 27.6526 22.0635L18.706 23.7264L18.6468 34H20.9135L20.9607 25.8052L27.952 24.5047C29.5358 24.2931 30.7043 23.7386 31.5238 22.81C32.2243 22.016 32.6507 21.0016 32.9064 19.5201L34 13.1835V9.56365L26.7254 8.24654Z" fill="#5429FF"/>
</svg>
